<svg width="18" height="18" viewBox="0 0 18 18" fill="none" xmlns="http://www.w3.org/2000/svg">
<path d="M18 16.9078L12.6891 11.5922C13.6641 10.3734 14.25 8.82187 14.25 7.13437C14.25 3.19219 11.0578 0 7.125 0C3.1875 0 0 3.19687 0 7.13437C0 11.0719 3.19219 14.2687 7.125 14.2687C8.82187 14.2687 10.3781 13.6734 11.6016 12.6844L16.9078 18L18 16.9078ZM2.61562 11.6531C1.41094 10.4484 0.75 8.84531 0.75 7.13906C0.75 5.43281 1.41562 3.82969 2.61562 2.625C3.81562 1.42031 5.42344 0.75 7.125 0.75C8.82656 0.75 10.4297 1.41563 11.6344 2.62031C12.8391 3.825 13.5 5.42812 13.5 7.13437C13.5 8.84062 12.8344 10.4438 11.6344 11.6484C10.4297 12.8531 8.82656 13.5187 7.125 13.5187C5.42344 13.5234 3.82031 12.8578 2.61562 11.6531Z" fill="black"/>
</svg>
