<svg width="74" height="74" viewBox="0 0 74 74" fill="none" xmlns="http://www.w3.org/2000/svg">
<g clip-path="url(#clip0_19_526)">
<path d="M37 0C16.5655 0 0 16.5655 0 37C0 57.4346 16.5655 74 37 74C57.4346 74 74 57.4346 74 37C74 16.5655 57.4346 0 37 0ZM56.2312 23.4048L49.6596 54.7773C49.5801 55.1568 49.4065 55.5102 49.1548 55.805C48.9031 56.0999 48.5813 56.3268 48.219 56.4648C47.8567 56.6028 47.4656 56.6476 47.0815 56.595C46.6974 56.5424 46.3326 56.3942 46.0208 56.1638L36.4621 49.1019L30.671 54.5652C30.5952 54.6367 30.5059 54.6924 30.4083 54.729C30.3108 54.7657 30.2069 54.7825 30.1027 54.7785C29.9986 54.7746 29.8963 54.7499 29.8018 54.706C29.7073 54.6621 29.6225 54.5997 29.5523 54.5227L29.4279 54.386L30.4341 44.6482L48.5704 28.0775C48.6601 27.9957 48.7159 27.8832 48.7268 27.7623C48.7376 27.6414 48.7028 27.5208 48.6291 27.4243C48.5554 27.3279 48.4482 27.2625 48.3287 27.2412C48.2092 27.2198 48.086 27.244 47.9835 27.309L24.7893 41.9891L14.8 38.6342C14.5344 38.545 14.3029 38.3758 14.1373 38.1497C13.9717 37.9237 13.88 37.652 13.875 37.3719C13.8699 37.0917 13.9516 36.8168 14.109 36.585C14.2663 36.3531 14.4915 36.1757 14.7537 36.0769L53.8379 21.3536C54.1394 21.2402 54.4658 21.2098 54.7831 21.2657C55.1003 21.3215 55.3967 21.4616 55.6413 21.6712C55.8859 21.8809 56.0697 22.1523 56.1735 22.4573C56.2772 22.7623 56.2972 23.0895 56.2312 23.4048Z" fill="black"/>
</g>
<defs>
<clipPath id="clip0_19_526">
<rect width="74" height="74" fill="white"/>
</clipPath>
</defs>
</svg>
