<svg width="8" height="12" viewBox="0 0 8 12" fill="none" xmlns="http://www.w3.org/2000/svg">
<path d="M0.870265 0.234846C0.944519 0.160403 1.03273 0.101341 1.12985 0.061042C1.22696 0.0207433 1.33108 0 1.43622 0C1.54137 0 1.64548 0.0207433 1.74259 0.061042C1.83971 0.101341 1.92792 0.160403 2.00218 0.234846L7.3164 5.54907C7.37568 5.60823 7.42272 5.67851 7.45481 5.75587C7.4869 5.83323 7.50342 5.91616 7.50342 5.99992C7.50342 6.08367 7.4869 6.1666 7.45481 6.24396C7.42272 6.32132 7.37568 6.3916 7.3164 6.45076L2.00218 11.765C1.68882 12.0783 1.18362 12.0783 0.870265 11.765C0.556911 11.4516 0.556911 10.9464 0.870265 10.6331L5.50023 5.99672L0.863871 1.36036C0.556912 1.0534 0.556911 0.541804 0.870265 0.234846Z" fill="#8E8E8E"/>
</svg>
