<svg width="16" height="20" viewBox="0 0 16 20" fill="none" xmlns="http://www.w3.org/2000/svg">
<path d="M7.62525 4.28381C5.78691 4.28381 4.29199 5.77914 4.29199 7.61707C4.29199 9.455 5.78691 10.9503 7.62525 10.9503C9.46358 10.9503 10.9585 9.455 10.9585 7.61707C10.9585 5.77914 9.46358 4.28381 7.62525 4.28381ZM7.62525 10.117C6.2467 10.117 5.12531 8.99562 5.12531 7.61707C5.12531 6.23852 6.2467 5.11713 7.62525 5.11713C9.0038 5.11713 10.1252 6.23852 10.1252 7.61707C10.1252 8.99562 9.0038 10.117 7.62525 10.117Z" fill="#1D1D1B"/>
<path d="M7.63654 0.000469856C7.62759 6.29487e-05 7.62026 6.29487e-05 7.61131 0.000469856C7.60155 6.29487e-05 7.59422 -0.000343958 7.58608 0.000469856C3.39917 0.0212213 0 3.43016 0 7.61707C0 9.60474 0.865051 11.2461 1.59583 12.2776C1.5999 12.2845 1.60478 12.2914 1.61048 12.2984L7.09456 19.7457C7.21174 19.9056 7.42658 20 7.62515 20C7.82371 20 8.01088 19.9056 8.12806 19.7457L13.6121 12.2984C13.6178 12.2914 13.6227 12.2845 13.6268 12.2776C14.3576 11.2461 15.2226 9.60474 15.2226 7.61707C15.2226 3.43016 11.8235 0.0212213 7.63654 0.000469856ZM12.5982 11.5676C12.5982 11.568 12.5982 11.568 12.5982 11.568L7.61131 18.3399L2.62445 11.568C2.62445 11.568 2.62445 11.568 2.62445 11.5676C1.99702 10.6854 1.24997 9.28411 1.24997 7.61707C1.24997 4.11089 4.10228 1.25776 7.61131 1.25044C11.1203 1.25776 13.9727 4.11089 13.9727 7.61707C13.9727 9.28411 13.2256 10.6854 12.5982 11.5676Z" fill="#1D1D1B"/>
</svg>
