<svg width="8" height="12" viewBox="0 0 8 12" fill="none" xmlns="http://www.w3.org/2000/svg">
<path d="M7.26743 11.7652C7.19318 11.8396 7.10496 11.8987 7.00785 11.939C6.91073 11.9793 6.80662 12 6.70147 12C6.59633 12 6.49222 11.9793 6.3951 11.939C6.29799 11.8987 6.20977 11.8396 6.13552 11.7652L0.821295 6.45093C0.762011 6.39177 0.714978 6.32149 0.682887 6.24413C0.650796 6.16677 0.634277 6.08384 0.634277 6.00008C0.634277 5.91633 0.650796 5.8334 0.682887 5.75604C0.714978 5.67868 0.762011 5.6084 0.821295 5.54924L6.13552 0.235014C6.44887 -0.0783396 6.95408 -0.0783396 7.26743 0.235014C7.58078 0.548368 7.58078 1.05357 7.26743 1.36693L2.63747 6.00328L7.27382 10.6396C7.58078 10.9466 7.58078 11.4582 7.26743 11.7652Z" fill="#8E8E8E"/>
</svg>
