<svg width="286" height="50" viewBox="0 0 286 50" fill="none" xmlns="http://www.w3.org/2000/svg">
<rect x="0.5" y="0.5" width="285" height="49" fill="black" stroke="black"/>
<path d="M28.584 31V19.8H30.28L35.192 27.976H34.28L39.112 19.8H40.808L40.84 31H38.856L38.84 22.888H39.256L35.16 29.72H34.232L30.072 22.888H30.552V31H28.584ZM47.3343 29.24C47.9209 29.4427 48.4383 29.496 48.8863 29.4C49.3343 29.304 49.7343 28.9787 50.0863 28.424L50.6303 27.576L50.8383 27.352L54.7423 19.8H56.7903L51.9263 28.84C51.5316 29.5973 51.0623 30.1733 50.5183 30.568C49.9743 30.9627 49.3876 31.1813 48.7583 31.224C48.1396 31.2773 47.4943 31.16 46.8223 30.872L47.3343 29.24ZM50.7903 29.144L45.7983 19.8H48.0223L51.9263 27.544L50.7903 29.144ZM61.0725 31.16C60.8912 31.16 60.7098 31.144 60.5285 31.112C60.3472 31.08 60.1498 31.0427 59.9365 31L60.0805 29.192C60.2298 29.2347 60.3898 29.256 60.5605 29.256C61.0085 29.256 61.3658 29.0747 61.6325 28.712C61.8992 28.3387 62.0912 27.7947 62.2085 27.08C62.3258 26.3653 62.4058 25.4853 62.4485 24.44L62.6085 19.8H70.8485V31H68.8005V21.048L69.2805 21.56H63.9525L64.4005 21.032L64.2885 24.36C64.2565 25.4693 64.1818 26.4453 64.0645 27.288C63.9472 28.1307 63.7658 28.84 63.5205 29.416C63.2858 29.9813 62.9712 30.4133 62.5765 30.712C62.1818 31.0107 61.6805 31.16 61.0725 31.16ZM82.3672 23.592C83.7006 23.592 84.7299 23.8907 85.4552 24.488C86.1806 25.0853 86.5432 25.9813 86.5432 27.176C86.5432 28.4347 86.1432 29.3893 85.3432 30.04C84.5539 30.68 83.4499 31 82.0312 31H77.2152V19.8H79.2632V23.592H82.3672ZM81.9352 29.4C82.7352 29.4 83.3539 29.2133 83.7912 28.84C84.2392 28.4667 84.4632 27.9227 84.4632 27.208C84.4632 26.504 84.2446 25.992 83.8072 25.672C83.3699 25.3413 82.7459 25.176 81.9352 25.176H79.2632V29.4H81.9352ZM93.095 31V21.048L93.591 21.56H89.399V19.8H98.871V21.56H94.679L95.159 21.048V31H93.095ZM103.881 31V19.8H105.929V27.752L111.945 19.8H113.881V31H111.833V23.064L105.817 31H103.881ZM120.237 31V19.8H128.957V21.512H122.285V24.264H125.597C126.941 24.264 127.96 24.5467 128.653 25.112C129.357 25.6667 129.709 26.4773 129.709 27.544C129.709 28.6427 129.32 29.496 128.541 30.104C127.773 30.7013 126.685 31 125.277 31H120.237ZM122.285 29.4H125.165C125.965 29.4 126.573 29.2453 126.989 28.936C127.405 28.6267 127.613 28.1787 127.613 27.592C127.613 26.44 126.797 25.864 125.165 25.864H122.285V29.4ZM135.187 31V19.8H139.795C140.787 19.8 141.635 19.96 142.339 20.28C143.053 20.6 143.603 21.0587 143.987 21.656C144.371 22.2533 144.563 22.9627 144.563 23.784C144.563 24.6053 144.371 25.3147 143.987 25.912C143.603 26.5093 143.053 26.968 142.339 27.288C141.635 27.608 140.787 27.768 139.795 27.768H136.339L137.267 26.792V31H135.187ZM137.267 27.016L136.339 26.008H139.699C140.616 26.008 141.304 25.816 141.763 25.432C142.232 25.0373 142.467 24.488 142.467 23.784C142.467 23.0693 142.232 22.52 141.763 22.136C141.304 21.752 140.616 21.56 139.699 21.56H136.339L137.267 20.536V27.016ZM151.65 24.456H157.218V26.168H151.65V24.456ZM151.81 29.256H158.13V31H149.73V19.8H157.906V21.544H151.81V29.256ZM171.521 19.8H173.601V31H171.521V19.8ZM165.729 31H163.649V19.8H165.729V31ZM171.681 26.2H165.553V24.424H171.681V26.2ZM187.274 30.04V21.56H182.89L182.81 23.544C182.778 24.2907 182.73 25 182.666 25.672C182.612 26.3333 182.522 26.936 182.394 27.48C182.276 28.024 182.111 28.4773 181.898 28.84C181.684 29.2027 181.423 29.4427 181.114 29.56L178.874 29.24C179.279 29.2613 179.61 29.1227 179.866 28.824C180.132 28.5253 180.34 28.1093 180.49 27.576C180.639 27.0427 180.751 26.4187 180.826 25.704C180.9 24.9787 180.954 24.1947 180.986 23.352L181.114 19.8H189.322V30.04H187.274ZM178.49 33.384L178.506 29.24H190.938V33.384H189.018V31H180.426V33.384H178.49ZM201.296 31.16C200.421 31.16 199.616 31.016 198.88 30.728C198.144 30.44 197.504 30.04 196.96 29.528C196.416 29.0053 195.995 28.3973 195.696 27.704C195.397 27 195.248 26.232 195.248 25.4C195.248 24.568 195.397 23.8053 195.696 23.112C195.995 22.408 196.416 21.8 196.96 21.288C197.504 20.7653 198.144 20.36 198.88 20.072C199.616 19.784 200.416 19.64 201.28 19.64C202.155 19.64 202.955 19.784 203.68 20.072C204.416 20.36 205.056 20.7653 205.6 21.288C206.144 21.8 206.565 22.408 206.864 23.112C207.163 23.8053 207.312 24.568 207.312 25.4C207.312 26.232 207.163 27 206.864 27.704C206.565 28.408 206.144 29.016 205.6 29.528C205.056 30.04 204.416 30.44 203.68 30.728C202.955 31.016 202.16 31.16 201.296 31.16ZM201.28 29.336C201.845 29.336 202.368 29.24 202.848 29.048C203.328 28.856 203.744 28.584 204.096 28.232C204.448 27.8693 204.72 27.4533 204.912 26.984C205.115 26.504 205.216 25.976 205.216 25.4C205.216 24.824 205.115 24.3013 204.912 23.832C204.72 23.352 204.448 22.936 204.096 22.584C203.744 22.2213 203.328 21.944 202.848 21.752C202.368 21.56 201.845 21.464 201.28 21.464C200.715 21.464 200.192 21.56 199.712 21.752C199.243 21.944 198.827 22.2213 198.464 22.584C198.112 22.936 197.835 23.352 197.632 23.832C197.44 24.3013 197.344 24.824 197.344 25.4C197.344 25.9653 197.44 26.488 197.632 26.968C197.835 27.448 198.112 27.8693 198.464 28.232C198.816 28.584 199.232 28.856 199.712 29.048C200.192 29.24 200.715 29.336 201.28 29.336ZM212.828 31V19.8H217.836C219.094 19.8 220.076 20.0507 220.78 20.552C221.484 21.0427 221.836 21.752 221.836 22.68C221.836 23.5973 221.5 24.3067 220.828 24.808C220.156 25.2987 219.27 25.544 218.172 25.544L218.46 24.968C219.708 24.968 220.673 25.2187 221.356 25.72C222.038 26.2213 222.38 26.9467 222.38 27.896C222.38 28.8667 222.022 29.6293 221.308 30.184C220.593 30.728 219.537 31 218.14 31H212.828ZM214.876 29.4H218.076C218.801 29.4 219.35 29.2667 219.724 29C220.097 28.7227 220.284 28.3013 220.284 27.736C220.284 27.1707 220.097 26.76 219.724 26.504C219.35 26.2373 218.801 26.104 218.076 26.104H214.876V29.4ZM214.876 24.584H217.66C218.332 24.584 218.844 24.4507 219.196 24.184C219.548 23.9067 219.724 23.512 219.724 23C219.724 22.4667 219.548 22.0667 219.196 21.8C218.844 21.5333 218.332 21.4 217.66 21.4H214.876V24.584ZM233.117 23.592C234.451 23.592 235.48 23.8907 236.205 24.488C236.931 25.0853 237.293 25.9813 237.293 27.176C237.293 28.4347 236.893 29.3893 236.093 30.04C235.304 30.68 234.2 31 232.781 31H227.965V19.8H230.013V23.592H233.117ZM232.685 29.4C233.485 29.4 234.104 29.2133 234.541 28.84C234.989 28.4667 235.213 27.9227 235.213 27.208C235.213 26.504 234.995 25.992 234.557 25.672C234.12 25.3413 233.496 25.176 232.685 25.176H230.013V29.4H232.685ZM238.909 31V19.8H240.957V31H238.909ZM247.322 31V19.8H249.37V27.752L255.386 19.8H257.322V31H255.274V23.064L249.258 31H247.322ZM252.298 19.048C251.338 19.048 250.612 18.8453 250.122 18.44C249.642 18.0347 249.396 17.464 249.386 16.728H250.842C250.852 17.1227 250.98 17.4267 251.226 17.64C251.482 17.8533 251.839 17.96 252.298 17.96C252.756 17.96 253.114 17.8533 253.37 17.64C253.636 17.4267 253.775 17.1227 253.786 16.728H255.226C255.215 17.464 254.964 18.0347 254.474 18.44C253.983 18.8453 253.258 19.048 252.298 19.048Z" fill="white"/>
</svg>
